<?xml version="1.0" encoding="UTF-8" standalone="no"?>
<!DOCTYPE svg PUBLIC "-//W3C//DTD SVG 1.1//EN" "http://www.w3.org/Graphics/SVG/1.1/DTD/svg11.dtd">
<svg width="100%" height="100%" viewBox="0 0 2048 2048" version="1.1" xmlns="http://www.w3.org/2000/svg" xmlns:xlink="http://www.w3.org/1999/xlink" xml:space="preserve" xmlns:serif="http://www.serif.com/" style="fill-rule:evenodd;clip-rule:evenodd;stroke-linecap:round;stroke-linejoin:round;stroke-miterlimit:1.5;">
    <g id="レイヤー4">
        <g transform="matrix(1,0,0,1,476.662,787.444)">
            <path d="M525.79,725.178C525.79,725.178 583.464,849.669 623.524,893.342C661.997,935.285 766.151,987.216 766.151,987.216C766.151,987.216 658.652,1048.79 620.38,1091.51C582.108,1134.23 536.518,1243.54 536.518,1243.54C536.518,1243.54 479.117,1135.4 439.104,1093.79C399.091,1052.18 296.442,993.883 296.442,993.883C296.442,993.883 392.339,939.474 427.418,898.375C465.643,853.591 525.79,725.178 525.79,725.178Z" style="stroke:black;stroke-width:1px;"/>
        </g>
        <path d="M899.594,18.934C1186.3,11.983 1451.71,138.048 1457.5,444.314C1463.69,771.683 1186.65,769.229 1046.38,861.239C935.51,933.958 802.816,1100.23 803.688,1176.38C804.632,1258.92 937.098,1364.74 1002.05,1365.35C1070.74,1365.99 1194.26,1296.47 1192.38,1204.52C1190.72,1123.47 1059.52,1038.75 1072.6,1017.6C1091.64,986.818 1226.43,1082.7 1228.7,1206.84C1230.57,1309.16 1087.88,1400.19 1002.2,1401.38C919.082,1402.54 768.636,1272.25 766.268,1177.52C761.73,996.021 840.961,915.304 911.469,840.122C1006.37,738.927 1112.21,592.776 1114.47,415.094C1116.52,253.187 1112.4,52.059 899.75,51.638C815.859,51.472 654.403,127.48 658.344,196.683C662.18,264.051 808.182,379.301 808.563,446.104C808.943,512.907 712.063,585.036 661.279,585.583C607.195,586.166 491.704,469.977 490.594,381.232C488.298,197.749 738.148,22.848 899.594,18.934Z" style="stroke:black;stroke-width:1px;"/>
    </g>
</svg>
