<?xml version="1.0" encoding="UTF-8" standalone="no"?>
<!DOCTYPE svg PUBLIC "-//W3C//DTD SVG 1.1//EN" "http://www.w3.org/Graphics/SVG/1.1/DTD/svg11.dtd">
<svg width="100%" height="100%" viewBox="0 0 2048 2048" version="1.1" xmlns="http://www.w3.org/2000/svg" xmlns:xlink="http://www.w3.org/1999/xlink" xml:space="preserve" xmlns:serif="http://www.serif.com/" style="fill-rule:evenodd;clip-rule:evenodd;stroke-linecap:round;stroke-linejoin:round;stroke-miterlimit:1.5;">
    <g id="レイヤー4">
        <g transform="matrix(1,0,0,1,455.996,746.788)">
            <path d="M525.79,725.178C525.79,725.178 583.464,849.669 623.524,893.342C661.997,935.285 766.151,987.216 766.151,987.216C766.151,987.216 658.652,1048.79 620.38,1091.51C582.108,1134.23 536.518,1243.54 536.518,1243.54C536.518,1243.54 479.117,1135.4 439.104,1093.79C399.091,1052.18 296.442,993.883 296.442,993.883C296.442,993.883 392.339,939.474 427.418,898.375C465.643,853.591 525.79,725.178 525.79,725.178Z" style="stroke:black;stroke-width:1px;"/>
        </g>
        <g transform="matrix(1,0,0,1,455.996,-693.813)">
            <path d="M525.79,725.178C525.79,725.178 583.464,849.669 623.524,893.342C661.997,935.285 766.151,987.216 766.151,987.216C766.151,987.216 658.652,1048.79 620.38,1091.51C582.108,1134.23 536.518,1911.81 536.518,1911.81C536.518,1911.81 479.117,1135.4 439.104,1093.79C399.091,1052.18 296.442,993.883 296.442,993.883C296.442,993.883 392.339,939.474 427.418,898.375C465.643,853.591 525.79,725.178 525.79,725.178Z" style="stroke:black;stroke-width:1px;"/>
        </g>
    </g>
</svg>
