<?xml version="1.0" encoding="UTF-8" standalone="no"?>
<!DOCTYPE svg PUBLIC "-//W3C//DTD SVG 1.1//EN" "http://www.w3.org/Graphics/SVG/1.1/DTD/svg11.dtd">
<svg width="100%" height="100%" viewBox="0 0 2048 2048" version="1.1" xmlns="http://www.w3.org/2000/svg" xmlns:xlink="http://www.w3.org/1999/xlink" xml:space="preserve" xmlns:serif="http://www.serif.com/" style="fill-rule:evenodd;clip-rule:evenodd;stroke-linecap:round;stroke-linejoin:round;stroke-miterlimit:1.5;">
    <g id="レイヤー6">
        <g transform="matrix(1,0,0,1,-186.3,-29.1208)">
            <path d="M1200.12,435.217C1190.59,437.824 1185.19,439.418 1185.19,439.418C1185.19,439.418 1457.91,132.539 1633.72,132.216C1815.41,131.882 2178.69,473.51 2172,808.707C2164.79,1170.26 1761.77,1703.57 1315.41,1696.84C1162.26,1694.52 958.61,1610.51 808.04,1500.74C803.41,1506.59 765.899,1558.15 762.022,1563.59C725.694,1614.58 696.152,1679.57 696.152,1679.57C696.152,1679.57 530.633,1497.62 458.961,1495.54C342.813,1492.16 292.921,1510.49 303.673,1669.71C311.559,1786.48 475.598,1903.17 600.339,1907.64C932.184,1919.55 949.545,1626.97 957.968,1640.56C966.39,1654.15 960.046,1981.25 650.873,1989.16C521.915,1992.46 236.543,1898.25 240.474,1663.04C242.348,1550.95 317.764,1319.1 537.882,1299.68L635.169,1324.1C614.266,1288.68 612.222,1238.73 614.448,1205.15C629.997,970.533 749.819,681.917 794.799,553.339C832.573,445.363 866.17,386.057 834.746,325.654C803.321,265.252 667.491,192.207 606.252,190.925C507.5,188.858 389.33,281.107 386.591,373.334C384.06,458.547 475.97,529.513 532.397,527.73C595.809,525.727 713.458,424.616 714.597,438.78C715.737,452.944 649.928,614.039 539.233,612.714C416.105,611.241 321.504,471.796 326.248,374.389C332.847,238.888 477.407,135.497 613.352,142.106C680.754,145.383 821.344,204.02 878.574,256.923C931.728,306.058 983.752,368.935 956.731,459.524C889.547,684.76 749.465,908.712 747.825,1150.57C746.546,1339.04 985.71,1518.74 1241.74,1557.3L1185.37,440.09L1200.12,435.217Z" style="stroke:black;stroke-width:1px;"/>
        </g>
        <g transform="matrix(1,0,0,1,-186.3,-29.1208)">
            <path d="M1472.53,391.912L1478.5,1522C1730.82,1403.66 1877.7,1050.12 1875,876.543C1869.6,530.559 1603.38,397.097 1472.53,391.912Z" style="fill:white;stroke:black;stroke-width:1px;"/>
        </g>
    </g>
    <g id="レイヤー7">
    </g>
</svg>
