<?xml version="1.0" encoding="UTF-8" standalone="no"?>
<!DOCTYPE svg PUBLIC "-//W3C//DTD SVG 1.1//EN" "http://www.w3.org/Graphics/SVG/1.1/DTD/svg11.dtd">
<svg width="100%" height="100%" viewBox="0 0 2048 2048" version="1.1" xmlns="http://www.w3.org/2000/svg" xmlns:xlink="http://www.w3.org/1999/xlink" xml:space="preserve" xmlns:serif="http://www.serif.com/" style="fill-rule:evenodd;clip-rule:evenodd;stroke-linecap:round;stroke-linejoin:round;stroke-miterlimit:1.5;">
    <g id="レイヤー6">
        <path d="M636.338,368.866C630.71,271.366 539.583,174.74 450.166,172.868C351.413,170.801 233.244,263.051 230.505,355.277C227.974,440.49 319.883,511.456 376.311,509.674C439.723,507.671 557.371,406.56 558.511,420.724C559.65,434.888 493.842,595.983 383.147,594.658C260.018,593.185 165.418,453.74 170.162,356.333C176.761,220.832 321.32,117.441 457.265,124.05C553.61,128.733 651.329,232.104 671.105,334.185C731.021,281.117 810.522,242.837 915.215,242.876C1081.99,242.937 1250.98,451.631 1374.19,697.44C1504.92,611.718 1597.44,539.123 1597.86,485.389C1598.57,397.269 1502.58,370.431 1502.58,370.431C1502.58,370.431 1634.18,302.326 1705.46,302.848C1822.82,303.707 1962.86,307.869 1962.96,399.556C1963.13,566.025 1720.7,729.047 1463.31,889.094C1576.55,1131.08 1686.12,1327.13 1764.52,1331.25C1848.9,1335.68 2008.45,1233.12 2008.45,1233.12C2008.45,1233.12 1824.52,1563.66 1665.4,1564.28C1387.3,1565.37 1232.82,1250.53 1129.09,1009.65C977.57,1115.67 751.159,1303.64 748.075,1407.24C746.838,1448.78 984.727,1505.41 984.727,1505.41C984.727,1505.41 750.217,1509.03 623.531,1565.37C584.752,1582.62 540.066,1661.52 540.066,1661.52C540.066,1661.52 374.546,1479.57 302.875,1477.48C186.726,1474.1 136.834,1492.43 147.586,1651.65C155.472,1768.43 319.512,1885.11 444.253,1889.59C776.098,1901.49 793.459,1608.92 801.881,1622.5C810.304,1636.09 803.959,1963.2 494.787,1971.11C365.828,1974.41 80.457,1880.19 84.388,1644.98C86.261,1532.89 141.43,1323.18 381.796,1281.62C495.164,1262.02 560.221,1326.4 560.221,1326.4C646.557,1178.08 878.413,988.145 1081.27,857.418C1003.15,654.072 935.487,448.939 777.397,452.36C698.702,454.063 549.01,665.32 549.01,665.32C549.01,665.32 529.793,488.017 636.338,368.866Z" style="stroke:black;stroke-width:1px;"/>
    </g>
    <g id="レイヤー7">
    </g>
</svg>
