<?xml version="1.0" encoding="UTF-8" standalone="no"?>
<!DOCTYPE svg PUBLIC "-//W3C//DTD SVG 1.1//EN" "http://www.w3.org/Graphics/SVG/1.1/DTD/svg11.dtd">
<svg width="100%" height="100%" viewBox="0 0 2048 2048" version="1.1" xmlns="http://www.w3.org/2000/svg" xmlns:xlink="http://www.w3.org/1999/xlink" xml:space="preserve" xmlns:serif="http://www.serif.com/" style="fill-rule:evenodd;clip-rule:evenodd;stroke-linecap:round;stroke-linejoin:round;stroke-miterlimit:1.5;">
    <g id="レイヤー6">
        <path d="M663.256,1331.14C576.009,1217.27 520.494,1064.12 525.444,858.818C536.372,405.618 1320.04,28.873 1560.04,24.023C1588.64,23.445 1699.81,24.964 1699.81,24.964L1699.44,1508.78C1699.44,1508.78 1555.45,1648.38 1473.66,1651.23C1346.35,1655.68 1050.73,1634.09 823.045,1480.14C812.355,1494.04 802.782,1506.87 795.214,1517.72C759.023,1569.6 696.152,1679.57 696.152,1679.57C696.152,1679.57 530.633,1497.62 458.961,1495.54C342.813,1492.16 292.921,1510.49 303.673,1669.71C311.559,1786.48 475.598,1903.17 600.339,1907.64C932.184,1919.55 949.545,1626.97 957.968,1640.56C966.39,1654.15 960.046,1981.25 650.873,1989.16C521.915,1992.46 236.543,1898.25 240.474,1663.04C242.348,1550.95 317.764,1319.1 537.882,1299.68L663.256,1331.14Z" style="stroke:black;stroke-width:1px;"/>
        <g transform="matrix(1,0,0,1,136.288,-137.516)">
            <path d="M1336.6,341.112L1330.8,1531.26C1330.8,1531.26 427.979,1459.63 429.429,991.774C430.677,589.191 1336.6,341.112 1336.6,341.112Z" style="fill:white;stroke:black;stroke-width:1px;"/>
        </g>
    </g>
</svg>
