<?xml version="1.0" encoding="UTF-8" standalone="no"?>
<!DOCTYPE svg PUBLIC "-//W3C//DTD SVG 1.1//EN" "http://www.w3.org/Graphics/SVG/1.1/DTD/svg11.dtd">
<svg width="100%" height="100%" viewBox="0 0 2048 2048" version="1.1" xmlns="http://www.w3.org/2000/svg" xmlns:xlink="http://www.w3.org/1999/xlink" xml:space="preserve" xmlns:serif="http://www.serif.com/" style="fill-rule:evenodd;clip-rule:evenodd;stroke-linecap:round;stroke-linejoin:round;stroke-miterlimit:1.5;">
    <g id="レイヤー6">
        <path d="M790.467,430.173C790.995,423.589 791.56,416.676 792.164,409.402C800.842,304.865 702.555,192.941 606.252,190.925C507.5,188.858 389.33,281.107 386.591,373.334C384.06,458.547 475.97,529.513 532.397,527.73C595.809,525.727 713.458,424.616 714.597,438.78C715.737,452.944 649.928,614.039 539.233,612.714C416.105,611.241 321.504,471.796 326.248,374.389C332.847,238.888 477.407,135.497 613.352,142.106C721.812,147.379 832.015,277.72 830.796,390.472C982.635,247.666 1167.04,147.221 1342.31,147.348C1787.72,147.671 1912.5,469.928 1906.06,751.39C1897.65,1119.05 1495.4,1636.94 1070.03,1630.77C936.492,1628.83 832.572,1606.14 752.149,1567.32C722.56,1615.38 696.152,1679.57 696.152,1679.57C696.152,1679.57 530.633,1497.62 458.961,1495.54C342.813,1492.16 292.921,1510.49 303.673,1669.71C311.559,1786.48 475.598,1903.17 600.339,1907.64C932.184,1919.55 949.545,1626.97 957.968,1640.56C966.39,1654.15 960.046,1981.25 650.873,1989.16C521.915,1992.46 236.543,1898.25 240.474,1663.04C242.322,1552.47 315.726,1325.39 528.982,1300.59C503.244,1217.21 494.536,1122.97 495.03,1023.76C495.954,838.453 617.626,608.207 790.467,430.173ZM1193.56,396.307C1575.47,320.541 1723.81,738.539 1674.58,909.18C1594.73,1185.92 1468.56,1423.98 1086.81,1495.46C877.147,1534.71 572.827,1332.84 625.032,974.151C663.823,707.626 919.815,450.615 1193.56,396.307Z" style="stroke:black;stroke-width:1px;"/>
    </g>
    <g id="レイヤー7">
    </g>
</svg>
