<?xml version="1.0" encoding="UTF-8" standalone="no"?>
<!DOCTYPE svg PUBLIC "-//W3C//DTD SVG 1.1//EN" "http://www.w3.org/Graphics/SVG/1.1/DTD/svg11.dtd">
<svg width="100%" height="100%" viewBox="0 0 2048 2048" version="1.1" xmlns="http://www.w3.org/2000/svg" xmlns:xlink="http://www.w3.org/1999/xlink" xml:space="preserve" xmlns:serif="http://www.serif.com/" style="fill-rule:evenodd;clip-rule:evenodd;stroke-linecap:round;stroke-linejoin:round;stroke-miterlimit:1.5;">
    <g id="レイヤー6">
        <path d="M830.046,372.199C929.038,224.248 1107.61,99.209 1347.57,95.757C1744.45,90.046 1845.31,330.154 1853.24,452.832C1866.21,653.608 1753.82,792.642 1753.82,792.642L1720.98,1456.92L1428.54,1621.17L1521.2,1390.46L1525.42,792.132C1525.42,792.132 1655.67,728.345 1654.01,474.007C1652.61,259.697 1503.01,205.746 1348.88,202.59C1198.38,199.508 826.443,252.852 829.838,602.646C830.4,660.549 801.079,797.624 1009.44,801.3C1075.34,802.463 1128.91,666.771 1171.46,665.678C1231.27,664.143 1206.2,671.769 1206.2,671.769C1206.2,671.769 1154.99,943.447 1131.36,1091.71C1107.31,1242.65 1083.5,1410.15 974.77,1512.52C863.014,1617.74 820.919,1565.75 762.552,1593.1C729.642,1608.52 696.152,1679.57 696.152,1679.57C696.152,1679.57 530.633,1497.62 458.961,1495.54C342.813,1492.16 292.921,1510.49 303.673,1669.71C311.559,1786.48 475.598,1903.17 600.339,1907.64C932.184,1919.55 949.545,1626.97 957.968,1640.56C966.39,1654.15 960.046,1981.25 650.873,1989.16C521.915,1992.46 236.543,1898.25 240.474,1663.04C242.348,1550.95 317.764,1319.1 537.882,1299.68C537.882,1299.68 860.965,1423.87 945.116,1375.15C1029.27,1326.43 1031.02,901.367 1031.02,901.367C1031.02,901.367 744.033,888.6 741.656,638.002C741.077,576.989 757.501,509.319 789.445,443.051C790.246,432.809 791.15,421.615 792.164,409.402C800.842,304.865 702.555,192.941 606.252,190.925C507.5,188.858 389.33,281.107 386.591,373.334C384.06,458.547 475.97,529.513 532.397,527.73C595.809,525.727 713.458,424.616 714.597,438.78C715.737,452.944 649.928,614.039 539.233,612.714C416.105,611.241 321.504,471.796 326.248,374.389C332.847,238.888 477.407,135.497 613.352,142.106C715.99,147.096 820.189,264.088 830.046,372.199Z" style="stroke:black;stroke-width:1px;"/>
    </g>
    <g id="レイヤー7">
    </g>
</svg>
