<?xml version="1.0" encoding="UTF-8" standalone="no"?>
<!DOCTYPE svg PUBLIC "-//W3C//DTD SVG 1.1//EN" "http://www.w3.org/Graphics/SVG/1.1/DTD/svg11.dtd">
<svg width="100%" height="100%" viewBox="0 0 2048 2048" version="1.1" xmlns="http://www.w3.org/2000/svg" xmlns:xlink="http://www.w3.org/1999/xlink" xml:space="preserve" xmlns:serif="http://www.serif.com/" style="fill-rule:evenodd;clip-rule:evenodd;stroke-linecap:round;stroke-linejoin:round;stroke-miterlimit:1.5;">
    <g id="レイヤー6">
        <g transform="matrix(1,0,0,1,214.073,-54.1108)">
            <path d="M1214.61,376.001L1814.8,374.006L1656.97,602.5L1138.22,603.958L1085.88,550.875L1214.61,376.001Z" style="stroke:black;stroke-width:1px;"/>
        </g>
        <g transform="matrix(1,0,0,1,214.073,-54.1108)">
            <path d="M1378.53,560.188C1378.53,560.188 1670.04,852.624 1664.28,1038.67C1655.84,1311.8 1480.74,1563.81 1185.38,1559C981.836,1555.68 662.105,1030.85 662.105,1030.85L644.983,564.063C644.983,564.063 796.765,1236.17 1114.74,1233.03C1290.86,1231.29 1408.88,1050.93 1409.22,937.083C1409.75,761.644 1207.47,556.25 1207.47,556.25L1378.53,560.188Z" style="stroke:black;stroke-width:1px;"/>
        </g>
        <path d="M756.254,318.929C754.74,253.215 674.194,192.347 606.252,190.925C507.5,188.858 389.33,281.107 386.591,373.334C384.06,458.547 475.97,529.513 532.397,527.73C595.809,525.727 713.458,424.616 714.597,438.78C715.737,452.944 649.928,614.039 539.233,612.714C416.105,611.241 321.504,471.796 326.248,374.389C332.847,238.888 477.407,135.497 613.352,142.106C698.355,146.238 784.429,227.192 817.098,316.302L880.749,606.822L892.798,1423.15C892.798,1423.15 821.48,1486.24 792.687,1523.78C759.912,1566.52 696.152,1679.57 696.152,1679.57C696.152,1679.57 530.633,1497.62 458.961,1495.54C342.813,1492.16 292.921,1510.49 303.673,1669.71C311.559,1786.48 475.598,1903.17 600.339,1907.64C932.184,1919.55 949.545,1626.97 957.968,1640.56C966.39,1654.15 960.046,1981.25 650.873,1989.16C521.915,1992.46 236.543,1898.25 240.474,1663.04C242.348,1550.95 317.764,1319.1 537.882,1299.68L769.419,1310.26C769.419,1310.26 760.744,513.716 756.254,318.929Z" style="stroke:black;stroke-width:1px;"/>
    </g>
    <g id="レイヤー7">
    </g>
</svg>
