<?xml version="1.0" encoding="UTF-8" standalone="no"?>
<!DOCTYPE svg PUBLIC "-//W3C//DTD SVG 1.1//EN" "http://www.w3.org/Graphics/SVG/1.1/DTD/svg11.dtd">
<svg width="100%" height="100%" viewBox="0 0 2048 2048" version="1.1" xmlns="http://www.w3.org/2000/svg" xmlns:xlink="http://www.w3.org/1999/xlink" xml:space="preserve" xmlns:serif="http://www.serif.com/" style="fill-rule:evenodd;clip-rule:evenodd;stroke-linecap:round;stroke-linejoin:round;stroke-miterlimit:1.5;">
    <g id="レイヤー6">
        <path d="M889.337,596.397C834.501,593.6 795.092,495.34 785.793,407.382C774.766,303.066 677.303,187.201 606.252,190.925C507.613,196.094 389.33,281.107 386.591,373.334C384.06,458.547 475.97,529.513 532.397,527.73C595.809,525.727 713.458,424.616 714.597,438.78C715.737,452.944 649.928,614.039 539.233,612.714C416.105,611.241 321.504,471.796 326.248,374.389C332.847,238.888 477.407,135.497 613.352,142.106C725.746,147.57 820.441,287.559 842.713,401.152C852.378,450.446 890.241,523.484 890.241,523.484C890.241,523.484 1067.7,301.714 1237.06,302.417C1801.75,304.758 1827.04,637.57 1816.1,894.047C1792.27,1452.71 1673.76,1669.16 1296.39,1635.94C1094.52,1618.17 842.48,1452.93 458.961,1495.54C356.4,1506.93 296.525,1547.77 303.673,1669.71C310.521,1786.55 475.598,1903.17 600.339,1907.64C932.184,1919.55 949.545,1626.97 957.968,1640.56C966.39,1654.15 960.046,1981.25 650.873,1989.16C521.915,1992.46 236.543,1898.25 240.474,1663.04C242.348,1550.95 321.381,1329.33 541.499,1309.91C541.499,1309.91 647.92,1301.41 796.083,1343.34C924.53,1379.69 1085.11,1467 1225.56,1469.89C1448.53,1474.48 1515.86,1252.09 1532.05,1062.36L560.579,1062.6L725.046,878.541L1534.43,882.276C1522.73,687.267 1452.68,476.087 1146.53,454.792C970.942,442.578 984.482,601.251 889.337,596.397Z" style="stroke:black;stroke-width:1px;"/>
    </g>
    <g id="レイヤー7">
    </g>
</svg>
