<?xml version="1.0" encoding="UTF-8" standalone="no"?>
<!DOCTYPE svg PUBLIC "-//W3C//DTD SVG 1.1//EN" "http://www.w3.org/Graphics/SVG/1.1/DTD/svg11.dtd">
<svg width="100%" height="100%" viewBox="0 0 2048 2048" version="1.1" xmlns="http://www.w3.org/2000/svg" xmlns:xlink="http://www.w3.org/1999/xlink" xml:space="preserve" xmlns:serif="http://www.serif.com/" style="fill-rule:evenodd;clip-rule:evenodd;stroke-linecap:round;stroke-linejoin:round;stroke-miterlimit:1.5;">
    <g id="レイヤー6">
        <g transform="matrix(1,0,0,1,136.288,-137.516)">
            <path d="M1423.75,161.538C1452.35,160.96 1563.53,162.48 1563.53,162.48L1563.16,1646.29C1563.16,1646.29 1419.16,1785.89 1337.38,1788.75C1113.86,1796.56 371.608,1724.09 389.156,996.333C400.084,543.133 1183.75,166.389 1423.75,161.538Z" style="stroke:black;stroke-width:1px;"/>
        </g>
        <g transform="matrix(1,0,0,1,136.288,-137.516)">
            <path d="M1336.6,341.112L1330.8,1531.26C1330.8,1531.26 427.979,1459.63 429.429,991.774C430.677,589.191 1336.6,341.112 1336.6,341.112Z" style="fill:white;stroke:black;stroke-width:1px;"/>
        </g>
        <g transform="matrix(1,0,0,1,236.92,-109.507)">
            <path d="M300.962,1409.19C80.844,1428.61 5.428,1660.45 3.554,1772.54C-0.377,2007.76 284.995,2101.97 413.953,2098.67C723.125,2090.76 729.47,1763.65 721.047,1750.07C712.625,1736.48 695.264,2029.05 363.419,2017.15C238.678,2012.67 74.639,1895.99 66.753,1779.22C56.001,1620 105.893,1601.67 222.041,1605.05C293.713,1607.13 459.232,1789.08 459.232,1789.08C459.232,1789.08 522.103,1679.11 558.294,1627.23C601.389,1565.45 709.53,1439.42 717.803,1418.43C726.075,1397.43 642.819,1496.77 607.928,1501.25C575.71,1505.38 526.192,1465.71 526.192,1465.71" style="stroke:black;stroke-width:1px;"/>
        </g>
    </g>
</svg>
