<?xml version="1.0" encoding="UTF-8" standalone="no"?>
<!DOCTYPE svg PUBLIC "-//W3C//DTD SVG 1.1//EN" "http://www.w3.org/Graphics/SVG/1.1/DTD/svg11.dtd">
<svg width="100%" height="100%" viewBox="0 0 2048 2048" version="1.1" xmlns="http://www.w3.org/2000/svg" xmlns:xlink="http://www.w3.org/1999/xlink" xml:space="preserve" xmlns:serif="http://www.serif.com/" style="fill-rule:evenodd;clip-rule:evenodd;stroke-linecap:round;stroke-linejoin:round;stroke-miterlimit:1.5;">
    <g id="レイヤー6">
        <g transform="matrix(1,0,0,1,137.737,-176.093)">
            <path d="M651.436,952.368L1588.15,945.743L1496.03,1096.79L617.144,1111.84L651.436,952.368Z" style="stroke:black;stroke-width:1px;"/>
        </g>
        <path d="M775.274,240.848L952.779,115.519L1022.71,115.407C1022.71,115.407 769.58,742.53 756.317,1129.04C748.603,1353.86 918.042,1421.76 1246.87,1419.11C1379.59,1418.04 1715.36,1233.28 1715.36,1233.28C1715.36,1233.28 1568.15,1613.79 1148.21,1608.74C979.71,1606.72 864.829,1578.68 787.645,1531.72C757.988,1584.77 696.152,1679.57 696.152,1679.57C696.152,1679.57 530.633,1497.62 458.961,1495.54C342.813,1492.16 292.921,1510.49 303.673,1669.71C311.559,1786.48 475.598,1903.17 600.339,1907.64C932.184,1919.55 949.545,1626.97 957.968,1640.56C966.39,1654.15 960.046,1981.25 650.873,1989.16C521.915,1992.46 236.543,1898.25 240.474,1663.04C242.348,1550.95 261.489,1415.94 480.386,1334.5C575.925,1298.95 650.515,1327.95 650.515,1327.95C644.903,1298.95 642.104,1268.42 641.331,1236.7C636.661,1045.14 757.477,565.454 792.695,397.513C811.733,306.728 671.247,192.285 606.252,190.925C507.5,188.858 389.33,281.107 386.591,373.334C384.06,458.547 475.97,529.513 532.397,527.73C595.809,525.727 713.458,424.616 714.597,438.78C715.737,452.944 649.928,614.039 539.233,612.714C416.105,611.241 321.504,471.796 326.248,374.389C332.847,238.888 477.407,135.497 613.352,142.106C673.1,145.011 733.378,185.87 775.274,240.848Z" style="stroke:black;stroke-width:1px;"/>
    </g>
    <g id="レイヤー7">
    </g>
</svg>
