<?xml version="1.0" encoding="UTF-8" standalone="no"?>
<!DOCTYPE svg PUBLIC "-//W3C//DTD SVG 1.1//EN" "http://www.w3.org/Graphics/SVG/1.1/DTD/svg11.dtd">
<svg width="100%" height="100%" viewBox="0 0 2048 2048" version="1.1" xmlns="http://www.w3.org/2000/svg" xmlns:xlink="http://www.w3.org/1999/xlink" xml:space="preserve" xmlns:serif="http://www.serif.com/" style="fill-rule:evenodd;clip-rule:evenodd;stroke-linecap:round;stroke-linejoin:round;stroke-miterlimit:1.5;">
    <g id="レイヤー6">
        <path d="M789.623,261.357C870.257,118.797 1054.1,12.397 1356.43,17.772C1758.26,24.916 2026.45,199.361 2030.75,319.99C2032.72,375.375 1879.05,560.677 1832.86,562.821C1720.17,568.052 1724.24,179.949 1349.35,183.118C1225.48,184.165 841.504,343.173 839.531,537.795C837.234,764.456 836.062,1342.73 835.399,1552C835.175,1622.42 797.526,1767.9 797.526,1767.9C797.526,1767.9 609.805,1484.16 458.961,1495.54C343.093,1504.28 297.168,1548.44 303.673,1669.71C309.942,1786.58 475.598,1903.17 600.339,1907.64C932.184,1919.55 949.545,1626.97 957.968,1640.56C966.39,1654.15 960.046,1981.25 650.873,1989.16C521.915,1992.46 236.543,1898.25 240.474,1663.04C242.348,1550.95 332.61,1313.1 537.882,1299.68C596.521,1295.85 741.568,1350.8 741.568,1350.8C741.864,1044.41 742.1,627.982 741.454,447.511C741.279,398.87 750.138,350.738 768.453,305.293C734.549,241.701 669.966,192.258 606.252,190.925C507.5,188.858 389.33,281.107 386.591,373.334C384.06,458.547 475.97,529.513 532.397,527.73C595.809,525.727 713.458,424.616 714.597,438.78C715.737,452.944 649.928,614.039 539.233,612.714C416.105,611.241 321.504,471.796 326.248,374.389C332.847,238.888 477.407,135.497 613.352,142.106C680.327,145.362 747.967,196.31 789.623,261.357Z" style="stroke:black;stroke-width:1px;"/>
    </g>
    <g id="レイヤー7">
    </g>
</svg>
