<?xml version="1.0" encoding="UTF-8" standalone="no"?>
<!DOCTYPE svg PUBLIC "-//W3C//DTD SVG 1.1//EN" "http://www.w3.org/Graphics/SVG/1.1/DTD/svg11.dtd">
<svg width="100%" height="100%" viewBox="0 0 2048 2048" version="1.1" xmlns="http://www.w3.org/2000/svg" xmlns:xlink="http://www.w3.org/1999/xlink" xml:space="preserve" xmlns:serif="http://www.serif.com/" style="fill-rule:evenodd;clip-rule:evenodd;stroke-linecap:round;stroke-linejoin:round;stroke-miterlimit:1.5;">
    <g id="レイヤー6">
        <path d="M816.656,375.376C1033.19,175.907 1317.18,90.829 1484.6,100.146C1669.6,110.441 1849.53,153.313 1851.82,211.479C1855.03,292.939 1719.39,333.747 1637.23,332.813C1547.17,331.788 1437.47,250.342 1301.88,250.896C851.423,252.734 592.533,706.192 586.819,1021.65C578.789,1464.97 1033.76,1386.07 1033.76,1386.07L1075.95,672.841C1075.95,672.841 1138.14,672.656 1196.53,666.582C1272.55,658.673 1306.74,516.829 1508.63,520.854C1714.77,524.964 1870.2,694.195 1864.8,917.526C1852.37,1432.21 1224.16,1595.73 1224.16,1595.73C1224.16,1595.73 1600.2,1169.26 1590.01,984.227C1572.07,658.349 1236.15,719.801 1236.15,719.801L1184.32,1476.53L1083.78,1587.91C1083.78,1587.91 890.743,1590.12 827.038,1587.77C798.626,1586.72 766.071,1554.71 741.943,1569.6C717.816,1584.5 682.273,1677.13 682.273,1677.13C682.273,1677.13 516.754,1495.18 445.083,1493.1C328.934,1489.72 279.042,1508.05 289.794,1667.27C297.68,1784.04 461.719,1900.73 586.46,1905.2C918.305,1917.1 935.666,1624.53 944.089,1638.12C952.511,1651.7 946.167,1978.81 636.994,1986.72C508.036,1990.02 222.664,1895.81 226.596,1660.59C228.469,1548.5 303.885,1316.66 524.003,1297.24L594.4,1314.9C553.98,1246.92 523.808,1172.59 521.1,1099.81C509.941,799.87 621.586,573.852 777.75,413.237C777.929,411.185 777.573,415.365 777.75,413.237C786.428,308.7 688.677,190.498 592.373,188.482C493.621,186.415 375.451,278.664 372.712,370.891C370.181,456.104 462.091,527.07 518.518,525.287C581.93,523.284 699.579,422.173 700.718,436.337C701.858,450.502 636.05,611.596 525.354,610.272C402.226,608.798 307.626,469.354 312.369,371.946C318.968,236.445 463.528,133.054 599.473,139.663C703.887,144.739 810.206,265.752 816.656,375.376Z" style="stroke:black;stroke-width:1px;"/>
    </g>
    <g id="レイヤー7">
    </g>
</svg>
