<?xml version="1.0" encoding="UTF-8" standalone="no"?>
<!DOCTYPE svg PUBLIC "-//W3C//DTD SVG 1.1//EN" "http://www.w3.org/Graphics/SVG/1.1/DTD/svg11.dtd">
<svg width="100%" height="100%" viewBox="0 0 2048 2048" version="1.1" xmlns="http://www.w3.org/2000/svg" xmlns:xlink="http://www.w3.org/1999/xlink" xml:space="preserve" xmlns:serif="http://www.serif.com/" style="fill-rule:evenodd;clip-rule:evenodd;stroke-linecap:round;stroke-linejoin:round;stroke-miterlimit:1.5;">
    <g id="レイヤー6">
        <path d="M1277.32,175.458C1333.22,179.614 1384.62,285.235 1384.62,285.235C1384.62,285.235 1556.63,288.452 1620.2,287.086C1655.64,286.324 1700.77,245.452 1744.32,246.241C1805.5,247.35 1949.35,277.543 1952.15,357.265C1953.2,387.258 1896.75,432.243 1843.41,492.979C1744.08,606.089 1559.86,792.191 1559.86,792.191L1526.73,1214.85C1526.73,1214.85 1648.92,1217.64 1691.04,1215.81C1744.11,1213.49 1889.92,1182 1889.92,1182L1252.34,1474.42L1293.6,989.79C1293.6,989.79 1081.05,1195.51 975.881,1278.62C886.868,1348.96 787.154,1457.64 678.639,1473.34C647.056,1524.39 614.851,1580.73 614.851,1580.73C614.851,1580.73 449.332,1398.78 377.661,1396.69C261.512,1393.31 211.62,1411.64 222.372,1570.86C230.258,1687.64 394.298,1804.32 519.038,1808.8C850.884,1820.7 868.245,1528.13 876.667,1541.71C885.09,1555.3 878.745,1882.41 569.573,1890.32C440.614,1893.62 155.243,1799.4 159.174,1564.19C161.047,1452.1 236.464,1220.26 456.582,1200.83L511.81,1214.69C560.057,1098.51 687.359,944.199 762.311,873.48C1018.95,631.339 1324.58,560.65 1440.96,616.192C1479.96,634.8 1485.13,640.211 1485.45,641.714L1485.37,642.147C1493.18,636.58 1776.36,434.708 1803.16,407.408C1821.42,388.815 1702.04,431.912 1675.98,431.945C1520.43,432.145 880.788,433.45 880.788,433.45C880.788,433.45 1187.14,173.949 1274.65,175.338L1277.32,175.458Z" style="stroke:black;stroke-width:1px;"/>
        <path d="M1167.31,775.799C1269.02,776.969 1299.35,835.97 1299.35,835.97C1299.35,835.97 1120.2,1012.18 1034.06,1078.36C939.447,1151.05 706.824,1293.48 654.941,1247.81C574.488,1177 716.49,978.662 808.898,902.657C891.24,834.931 964.847,773.47 1167.31,775.799Z" style="fill:white;stroke:black;stroke-width:1px;"/>
    </g>
    <g id="レイヤー7">
    </g>
</svg>
