<?xml version="1.0" encoding="UTF-8" standalone="no"?>
<!DOCTYPE svg PUBLIC "-//W3C//DTD SVG 1.1//EN" "http://www.w3.org/Graphics/SVG/1.1/DTD/svg11.dtd">
<svg width="100%" height="100%" viewBox="0 0 2048 2048" version="1.1" xmlns="http://www.w3.org/2000/svg" xmlns:xlink="http://www.w3.org/1999/xlink" xml:space="preserve" xmlns:serif="http://www.serif.com/" style="fill-rule:evenodd;clip-rule:evenodd;stroke-linecap:round;stroke-linejoin:round;stroke-miterlimit:1.5;">
    <g id="レイヤー6">
        <g transform="matrix(1,0,0,1,25.98,-103.037)">
            <path d="M300.962,1409.19C80.844,1428.61 5.428,1660.45 3.554,1772.54C-0.377,2007.76 284.995,2101.97 413.953,2098.67C723.125,2090.76 729.47,1763.65 721.047,1750.07C712.625,1736.48 695.264,2029.05 363.419,2017.15C238.678,2012.67 74.639,1895.99 66.753,1779.22C56.001,1620 105.893,1601.67 222.041,1605.05C293.713,1607.13 459.232,1789.08 459.232,1789.08C459.232,1789.08 522.103,1679.11 558.294,1627.23C601.389,1565.45 709.53,1439.42 717.803,1418.43C726.075,1397.43 642.819,1496.77 607.928,1501.25C575.71,1505.38 526.192,1465.71 526.192,1465.71" style="stroke:black;stroke-width:1px;"/>
        </g>
        <g transform="matrix(0.866347,0,0,0.870225,247.014,-200.245)">
            <path d="M465.558,422.241C593.186,423.626 700.235,636.113 700.235,636.113L1330.08,1783.19L1531.62,1716.46C1531.62,1716.46 1456.36,1978.95 1305.75,1976.44C1163.02,1974.06 999.298,1699.82 999.298,1699.82L406.295,662.229C406.295,662.229 411.315,1367.82 408.832,1533.54C407.445,1626.1 554.612,1710.38 596.249,1711.38C680.982,1713.4 940.877,1721.31 940.877,1721.31C940.877,1721.31 839.252,1861.04 764.74,1896.98C690.228,1932.92 592.977,1938.46 493.804,1936.95C391.918,1935.41 246.258,1690.31 246.279,1576.62C246.32,1353.23 250.301,858.249 251.18,652.192C251.664,538.533 378.735,421.298 465.558,422.241Z" style="stroke:black;stroke-width:1.15px;"/>
        </g>
        <g transform="matrix(0.866347,0,0,0.870225,247.014,-200.245)">
            <path d="M968.849,451.181C1108.92,439.199 1190.73,592.115 1190.73,592.115L1806.61,1751.4L2017.7,1685.2C2017.7,1685.2 1862.36,1976.2 1699.8,1973.05C1472.78,1968.64 1465.27,1697.3 1376.67,1525.12C1261.1,1300.52 1035.01,887.959 956.408,737.793C909.287,647.772 669.566,720.826 671.164,673.039C673.678,597.858 851.077,461.255 968.849,451.181Z" style="stroke:black;stroke-width:1.15px;"/>
        </g>
    </g>
    <g id="レイヤー7">
    </g>
</svg>
