<?xml version="1.0" encoding="UTF-8" standalone="no"?>
<!DOCTYPE svg PUBLIC "-//W3C//DTD SVG 1.1//EN" "http://www.w3.org/Graphics/SVG/1.1/DTD/svg11.dtd">
<svg width="100%" height="100%" viewBox="0 0 2048 2048" version="1.1" xmlns="http://www.w3.org/2000/svg" xmlns:xlink="http://www.w3.org/1999/xlink" xml:space="preserve" xmlns:serif="http://www.serif.com/" style="fill-rule:evenodd;clip-rule:evenodd;stroke-linecap:round;stroke-linejoin:round;stroke-miterlimit:1.5;">
    <g id="レイヤー6">
        <path d="M844.364,1391.8C861.615,1353 875.722,1315.56 883.315,1283.67C926.976,1100.28 950.654,563.081 950.654,563.081L863.74,551.925C863.74,551.925 949.89,305.231 1120.82,298.628C1183.01,296.226 1064.48,581.929 1035.45,817.911C1016.07,975.497 940.407,1321.67 940.407,1321.67C940.407,1321.67 1285.21,1078.43 1425.58,962.695C1527.35,878.786 1732.32,701.834 1731.88,623.462C1731.4,538.539 1685.95,490.733 1633.83,491.021C1597.04,491.225 1534.35,562.291 1478.47,563.926C1421.5,565.592 1375.57,565.337 1375.57,565.337C1375.57,565.337 1593.63,298.982 1782.94,301.253C1903.91,302.705 2025.65,405.871 2024.82,519.42C2022.2,876.384 1464.19,1095.68 1284.09,1227.68C1200.08,1289.25 1093.31,1353.97 984.477,1471.13C821.184,1646.92 696.152,1679.57 696.152,1679.57C696.152,1679.57 530.633,1497.62 458.961,1495.54C342.813,1492.16 292.921,1510.49 303.673,1669.71C311.559,1786.48 475.598,1903.17 600.339,1907.64C932.184,1919.55 949.545,1626.97 957.968,1640.56C966.39,1654.15 960.046,1981.25 650.873,1989.16C521.915,1992.46 236.543,1898.25 240.474,1663.04C242.348,1550.95 246.247,1319.71 537.882,1299.68C644.307,1292.37 812.136,1395.48 844.364,1391.8Z" style="stroke:black;stroke-width:1px;"/>
    </g>
    <g id="レイヤー7">
    </g>
</svg>
