<?xml version="1.0" encoding="UTF-8" standalone="no"?>
<!DOCTYPE svg PUBLIC "-//W3C//DTD SVG 1.1//EN" "http://www.w3.org/Graphics/SVG/1.1/DTD/svg11.dtd">
<svg width="100%" height="100%" viewBox="0 0 2048 2048" version="1.1" xmlns="http://www.w3.org/2000/svg" xmlns:xlink="http://www.w3.org/1999/xlink" xml:space="preserve" xmlns:serif="http://www.serif.com/" style="fill-rule:evenodd;clip-rule:evenodd;stroke-linecap:round;stroke-linejoin:round;stroke-miterlimit:1.5;">
    <g id="レイヤー6">
        <path d="M613.352,142.106C637.762,147.512 744.146,194.65 834.51,264.036C932.984,339.65 1150.56,237.888 1176.79,233.723C1275.08,218.109 1319.92,120.116 1527.23,117.455C1766.35,114.386 1960.74,379.585 1962.57,488.472C1965.77,678.02 1508.66,890.05 1508.66,890.05L1429.62,1427.9L1805.14,1332.05L1345.91,1606.79L1145.83,1607.02L1231.27,774.187C1231.27,774.187 1619.21,766.723 1625.49,490.233C1627.43,404.925 1517.35,276.493 1421.27,280.501C1352.8,283.357 1283.31,318.064 1220.09,357.564C1126.79,415.859 897.489,408.689 897.489,408.689L696.152,1679.57C696.152,1679.57 530.633,1497.62 458.961,1495.54C342.813,1492.16 292.921,1510.49 303.673,1669.71C311.559,1786.48 475.598,1903.17 600.339,1907.64C932.184,1919.55 949.545,1626.97 957.968,1640.56C966.39,1654.15 960.046,1981.25 650.873,1989.16C521.915,1992.46 236.543,1898.25 240.474,1663.04C242.348,1550.95 268.569,1301.65 652.744,1318.26C697.001,965.654 757.446,517.8 779.141,353.279C785.568,304.538 662.955,192.112 606.252,190.925C507.5,188.858 389.33,281.107 386.591,373.334C384.06,458.547 475.97,529.513 532.397,527.73C595.809,525.727 713.458,424.616 714.597,438.78C715.737,452.944 649.928,614.039 539.233,612.714C416.105,611.241 321.504,471.796 326.248,374.389C332.847,238.888 480.466,112.676 613.352,142.106Z" style="stroke:black;stroke-width:1px;"/>
    </g>
    <g id="レイヤー7">
    </g>
</svg>
