<?xml version="1.0" encoding="UTF-8" standalone="no"?>
<!DOCTYPE svg PUBLIC "-//W3C//DTD SVG 1.1//EN" "http://www.w3.org/Graphics/SVG/1.1/DTD/svg11.dtd">
<svg width="100%" height="100%" viewBox="0 0 2048 2048" version="1.1" xmlns="http://www.w3.org/2000/svg" xmlns:xlink="http://www.w3.org/1999/xlink" xml:space="preserve" xmlns:serif="http://www.serif.com/" style="fill-rule:evenodd;clip-rule:evenodd;stroke-linecap:round;stroke-linejoin:round;stroke-miterlimit:1.5;">
    <g id="レイヤー6">
        <path d="M502.742,1304.78C410.043,1195.02 345.237,1051.43 344.673,864.706C342.398,111.42 1333.38,20.428 1333.38,20.428L1549.68,19.782L1532.85,1505.9L1283.24,1640.28C1283.24,1640.28 1201.76,1638.98 1150.76,1638.98C1132.22,1638.99 965.663,1612.04 788.695,1522.89C747.755,1559.54 696.152,1679.57 696.152,1679.57C696.152,1679.57 530.633,1497.62 458.961,1495.54C342.813,1492.16 292.921,1510.49 303.673,1669.71C311.559,1786.48 475.598,1903.17 600.339,1907.64C932.184,1919.55 949.545,1626.97 957.968,1640.56C966.39,1654.15 960.046,1981.25 650.873,1989.16C521.915,1992.46 236.543,1898.25 240.474,1663.04C242.244,1557.13 309.662,1344.33 502.742,1304.78Z" style="stroke:black;stroke-width:1px;"/>
        <g transform="matrix(1,0,0,1,89.0549,-81.9266)">
            <path d="M1183.42,239.821L1186.34,1549.25C1186.34,1549.25 1133.32,1550.6 1071.96,1547.99C983.644,1544.23 365.001,1447.64 360.503,943.666C355.501,383.292 1183.42,239.821 1183.42,239.821Z" style="fill:white;stroke:black;stroke-width:1px;"/>
        </g>
        <g transform="matrix(1,0,0,1,89.0549,-81.9266)">
            <path d="M935.688,828.625L1840.81,831.083L1718.56,1055.58L1329.71,1058.75L1320.47,1018.46L810.5,1015.38L935.688,828.625Z" style="stroke:black;stroke-width:1px;"/>
        </g>
    </g>
    <g id="レイヤー7">
    </g>
</svg>
