<?xml version="1.0" encoding="UTF-8" standalone="no"?>
<!DOCTYPE svg PUBLIC "-//W3C//DTD SVG 1.1//EN" "http://www.w3.org/Graphics/SVG/1.1/DTD/svg11.dtd">
<svg width="100%" height="100%" viewBox="0 0 2048 2048" version="1.1" xmlns="http://www.w3.org/2000/svg" xmlns:xlink="http://www.w3.org/1999/xlink" xml:space="preserve" xmlns:serif="http://www.serif.com/" style="fill-rule:evenodd;clip-rule:evenodd;stroke-linecap:round;stroke-linejoin:round;stroke-miterlimit:1.5;">
    <g id="レイヤー6">
        <path d="M821.625,1358.77L1006.79,397.405L817.758,399.696C817.758,399.696 827.965,359.188 843.28,343.443C892.91,292.423 1115.54,93.571 1115.54,93.571L1273.73,96.863L1269.66,540.821L1055.79,1545.88C1055.79,1545.88 899.475,1560.46 839.536,1582.74C808.407,1594.32 696.152,1679.57 696.152,1679.57C696.152,1679.57 530.633,1497.62 458.961,1495.54C342.813,1492.16 292.921,1510.49 303.673,1669.71C311.559,1786.48 475.598,1903.17 600.339,1907.64C932.184,1919.55 949.545,1626.97 957.968,1640.56C966.39,1654.15 960.046,1981.25 650.873,1989.16C521.915,1992.46 236.543,1898.25 240.474,1663.04C242.348,1550.95 317.764,1319.1 537.882,1299.68L821.625,1358.77Z" style="stroke:black;stroke-width:1px;"/>
    </g>
    <g id="レイヤー7">
    </g>
</svg>
