<?xml version="1.0" encoding="UTF-8" standalone="no"?>
<!DOCTYPE svg PUBLIC "-//W3C//DTD SVG 1.1//EN" "http://www.w3.org/Graphics/SVG/1.1/DTD/svg11.dtd">
<svg width="100%" height="100%" viewBox="0 0 2048 2048" version="1.1" xmlns="http://www.w3.org/2000/svg" xmlns:xlink="http://www.w3.org/1999/xlink" xml:space="preserve" xmlns:serif="http://www.serif.com/" style="fill-rule:evenodd;clip-rule:evenodd;stroke-linecap:round;stroke-linejoin:round;stroke-miterlimit:1.5;">
    <g id="レイヤー7">
        <path d="M359.624,1381.19C346.651,1341.86 341.616,1299.51 343.597,1256.4C376.366,543.397 1085.16,52.012 1395.54,47.588C1613.14,44.486 1811.88,174.666 1802.34,376.247C1788.12,676.719 1697.52,770.727 1555.29,902.62C1385.28,1060.28 1083.86,1130.73 1020.14,1131.53C936.418,1132.59 959.558,1129.58 959.558,1129.58L960.558,416.395C960.558,416.395 667.287,645.072 657.333,924.196C651.803,1079.25 666.94,1402.62 925.488,1400.23C1187,1397.82 1604.99,1098.02 1604.99,1098.02C1604.99,1098.02 1178.83,1604.69 823.055,1598.79C781.194,1598.09 696.152,1679.57 696.152,1679.57C696.152,1679.57 476.509,1512.18 404.838,1510.09C288.689,1506.71 292.921,1510.49 303.673,1669.71C311.559,1786.48 475.598,1903.17 600.339,1907.64C932.184,1919.55 949.545,1626.97 957.968,1640.56C966.39,1654.15 960.046,1981.25 650.873,1989.16C521.915,1992.46 236.543,1898.25 240.474,1663.04C241.705,1589.38 274.691,1464.02 359.624,1381.19ZM1383.55,217.481C1486.6,229.896 1520.47,353.685 1518.85,456.669C1511.18,944.634 1016.19,1077.03 1016.19,1077.03L1014.07,382.656C1014.07,382.656 1246.58,200.98 1383.55,217.481Z" style="stroke:black;stroke-width:1px;"/>
    </g>
</svg>
