<?xml version="1.0" encoding="UTF-8" standalone="no"?>
<!DOCTYPE svg PUBLIC "-//W3C//DTD SVG 1.1//EN" "http://www.w3.org/Graphics/SVG/1.1/DTD/svg11.dtd">
<svg width="100%" height="100%" viewBox="0 0 2048 2048" version="1.1" xmlns="http://www.w3.org/2000/svg" xmlns:xlink="http://www.w3.org/1999/xlink" xml:space="preserve" xmlns:serif="http://www.serif.com/" style="fill-rule:evenodd;clip-rule:evenodd;stroke-linecap:round;stroke-linejoin:round;stroke-miterlimit:1.5;">
    <g id="レイヤー6">
        <path d="M1451.82,1395.8C1452.57,1107.05 1453.64,620.522 1452.81,453.199C1451.79,249.889 1237.64,179.514 1096.01,173.849C948.944,167.968 565.067,403.432 565.067,403.432C565.067,403.432 907.997,35.505 1224.57,25.516C1403.07,19.884 1685.9,131.924 1685.32,305.766C1684.36,588.064 1683.71,1468.56 1683.71,1468.56C1683.71,1468.56 1556.09,1546.53 1508.18,1588.78C1476.05,1617.11 1396.27,1722.03 1396.27,1722.03C1396.27,1722.03 1230.75,1540.09 1159.08,1538C1042.93,1534.62 993.039,1552.95 1003.79,1712.17C1011.68,1828.94 1175.72,1945.63 1300.46,1950.1C1632.3,1962.01 1649.66,1669.43 1658.09,1683.02C1666.51,1696.61 1660.16,2023.71 1350.99,2031.62C1222.03,2034.92 936.662,1940.71 940.593,1705.5C942.466,1593.41 979.612,1360.26 1238,1342.14C1311.3,1337 1451.82,1395.8 1451.82,1395.8Z" style="stroke:black;stroke-width:1px;"/>
    </g>
    <g id="レイヤー7">
    </g>
</svg>
