<?xml version="1.0" encoding="UTF-8" standalone="no"?>
<!DOCTYPE svg PUBLIC "-//W3C//DTD SVG 1.1//EN" "http://www.w3.org/Graphics/SVG/1.1/DTD/svg11.dtd">
<svg width="100%" height="100%" viewBox="0 0 2048 2048" version="1.1" xmlns="http://www.w3.org/2000/svg" xmlns:xlink="http://www.w3.org/1999/xlink" xml:space="preserve" xmlns:serif="http://www.serif.com/" style="fill-rule:evenodd;clip-rule:evenodd;stroke-linecap:round;stroke-linejoin:round;stroke-miterlimit:1.5;">
    <g id="レイヤー6">
        <g transform="matrix(1,0,0,1,236.92,-109.507)">
            <path d="M300.962,1409.19C80.844,1428.61 5.428,1660.45 3.554,1772.54C-0.377,2007.76 284.995,2101.97 413.953,2098.67C723.125,2090.76 729.47,1763.65 721.047,1750.07C712.625,1736.48 695.264,2029.05 363.419,2017.15C238.678,2012.67 74.639,1895.99 66.753,1779.22C56.001,1620 105.893,1601.67 222.041,1605.05C293.713,1607.13 459.232,1789.08 459.232,1789.08C459.232,1789.08 516.555,1655.74 558.294,1627.23C600.033,1598.72 701.393,1639.02 709.666,1618.02C717.938,1597.02 642.819,1496.77 607.928,1501.25C575.71,1505.38 526.192,1465.71 526.192,1465.71" style="stroke:black;stroke-width:1px;"/>
        </g>
        <g transform="matrix(1,0,0,1,89.0549,-81.9266)">
            <path d="M935.688,828.625L1840.81,831.083L1718.56,1055.58L1329.71,1058.75L1320.47,1018.46L810.5,1015.38L935.688,828.625Z" style="stroke:black;stroke-width:1px;"/>
        </g>
        <g transform="matrix(1,0,0,1,89.0549,-81.9266)">
            <path d="M1460.62,101.708L1443.8,1587.83L1194.18,1722.21C1194.18,1722.21 1112.7,1720.91 1061.7,1720.91C1020.74,1720.91 257.56,1589.41 255.618,946.632C253.343,193.346 1244.32,102.355 1244.32,102.355L1460.62,101.708ZM1183.42,239.821L1186.34,1549.25C1186.34,1549.25 1133.32,1550.6 1071.96,1547.99C983.644,1544.23 365.001,1447.64 360.503,943.666C355.501,383.292 1183.42,239.821 1183.42,239.821Z" style="stroke:black;stroke-width:1px;"/>
        </g>
    </g>
    <g id="レイヤー7">
    </g>
</svg>
