<?xml version="1.0" encoding="UTF-8" standalone="no"?>
<!DOCTYPE svg PUBLIC "-//W3C//DTD SVG 1.1//EN" "http://www.w3.org/Graphics/SVG/1.1/DTD/svg11.dtd">
<svg width="100%" height="100%" viewBox="0 0 2048 2048" version="1.1" xmlns="http://www.w3.org/2000/svg" xmlns:xlink="http://www.w3.org/1999/xlink" xml:space="preserve" xmlns:serif="http://www.serif.com/" style="fill-rule:evenodd;clip-rule:evenodd;stroke-linecap:round;stroke-linejoin:round;stroke-miterlimit:1.5;">
    <g id="レイヤー6">
        <path d="M1541.43,748.102L1929.87,749.157L1807.62,973.657L1538.85,975.846L1532.85,1505.9L1283.24,1640.28C1283.24,1640.28 1201.76,1638.98 1150.76,1638.98C1132.22,1638.99 965.663,1612.04 788.695,1522.89C747.755,1559.54 696.152,1679.57 696.152,1679.57C696.152,1679.57 530.633,1497.62 458.961,1495.54C342.813,1492.16 292.921,1510.49 303.673,1669.71C311.559,1786.48 475.598,1903.17 600.339,1907.64C932.184,1919.55 949.545,1626.97 957.968,1640.56C966.39,1654.15 960.046,1981.25 650.873,1989.16C521.915,1992.46 236.543,1898.25 240.474,1663.04C242.244,1557.13 309.662,1344.33 502.742,1304.78C410.043,1195.02 345.237,1051.43 344.673,864.706C342.398,111.42 1333.38,20.428 1333.38,20.428L1549.68,19.782L1541.43,748.102Z" style="stroke:black;stroke-width:1px;"/>
        <path d="M1273.79,747.375L1024.74,746.698L899.555,933.448L1274.21,935.714L1275.4,1467.32C1275.4,1467.32 1222.37,1468.68 1161.02,1466.06C1072.7,1462.3 454.056,1365.71 449.557,861.739C444.555,301.365 1272.48,157.895 1272.48,157.895L1273.79,747.375Z" style="fill:white;stroke:black;stroke-width:1px;"/>
    </g>
    <g id="レイヤー7">
    </g>
</svg>
