<?xml version="1.0" encoding="UTF-8" standalone="no"?>
<!DOCTYPE svg PUBLIC "-//W3C//DTD SVG 1.1//EN" "http://www.w3.org/Graphics/SVG/1.1/DTD/svg11.dtd">
<svg width="100%" height="100%" viewBox="0 0 2048 2048" version="1.1" xmlns="http://www.w3.org/2000/svg" xmlns:xlink="http://www.w3.org/1999/xlink" xml:space="preserve" xmlns:serif="http://www.serif.com/" style="fill-rule:evenodd;clip-rule:evenodd;stroke-linecap:round;stroke-linejoin:round;stroke-miterlimit:1.5;">
    <g id="レイヤー6">
        <path d="M613.352,142.106C804.731,138.224 832.119,388.688 832.119,388.688C832.119,388.688 1282.08,140.305 1492.18,140.679C1688.43,141.027 1877.59,208.492 1878.08,487.466C1879.09,1078 1170.84,927.478 1170.84,927.478C1170.84,927.478 1170.17,1197.36 1119.21,1331.46C1051.48,1509.7 860.014,1535.14 789.504,1593.16C756.761,1620.1 696.152,1679.57 696.152,1679.57C696.152,1679.57 530.633,1497.62 458.961,1495.54C342.813,1492.16 292.921,1510.49 303.673,1669.71C311.559,1786.48 475.598,1903.17 600.339,1907.64C932.184,1919.55 949.545,1626.97 957.968,1640.56C966.39,1654.15 960.046,1981.25 650.873,1989.16C521.915,1992.46 236.543,1898.25 240.474,1663.04C242.348,1550.95 248.642,1330.28 537.882,1299.68C680.758,1284.56 864.707,1485.63 864.707,1485.63C933.158,1435.51 1000.42,1373.1 1012.8,1314.89C1040.44,1184.98 1034.37,1020.26 1039.4,914.646C1043.29,832.757 1105.05,761.653 1230.59,759.938C1319.77,758.721 1327.84,793.759 1442.62,796.47C1485.71,797.488 1577.59,758.727 1573.96,615.47C1572.13,543.325 1552.23,370.999 1334.99,365.936C1160.38,361.867 880.004,423.017 808.497,733.596C760.437,942.34 664.115,1017.93 664.115,1017.93C682.716,1016.13 801.557,570.149 772.717,432.109C755.495,349.68 723.898,193.505 606.252,190.925C507.502,188.759 389.33,281.107 386.591,373.334C384.06,458.547 475.97,529.513 532.397,527.73C595.809,525.727 713.458,424.616 714.597,438.78C715.737,452.944 649.928,614.039 539.233,612.714C416.105,611.241 321.504,471.796 326.248,374.389C332.847,238.888 477.274,144.867 613.352,142.106Z" style="stroke:black;stroke-width:1px;"/>
    </g>
    <g id="レイヤー7">
    </g>
</svg>
