<?xml version="1.0" encoding="UTF-8" standalone="no"?>
<!DOCTYPE svg PUBLIC "-//W3C//DTD SVG 1.1//EN" "http://www.w3.org/Graphics/SVG/1.1/DTD/svg11.dtd">
<svg width="100%" height="100%" viewBox="0 0 2048 2048" version="1.1" xmlns="http://www.w3.org/2000/svg" xmlns:xlink="http://www.w3.org/1999/xlink" xml:space="preserve" xmlns:serif="http://www.serif.com/" style="fill-rule:evenodd;clip-rule:evenodd;stroke-linecap:round;stroke-linejoin:round;stroke-miterlimit:1.5;">
    <g id="レイヤー6">
        <path d="M602.806,308.092C571.79,264.543 515.652,190.405 445.052,188.927C346.3,186.86 228.13,279.11 225.391,371.336C222.86,456.549 314.77,527.515 371.197,525.732C434.609,523.729 552.258,422.619 553.397,436.783C554.537,450.947 488.728,612.042 378.033,610.717C254.905,609.243 160.304,469.799 165.048,372.391C171.647,236.89 316.207,133.5 452.152,140.108C532.221,144.001 613.24,216.055 649.685,298.896C697.088,262.987 745.742,231.638 770.866,231.88C856.722,232.708 755.153,359.471 745.776,417.218C719.241,580.621 605.506,1344.53 605.506,1344.53C605.506,1344.53 948.058,1033.12 1121.89,872.218C1196.64,803.023 1247.84,695.826 1248.69,618.845C1249.94,506.431 1207.79,422.774 1150.62,420.857C1095.75,419.018 938.79,500.5 938.79,500.5C938.79,500.5 1144.95,234.501 1296.58,234.203C1391.75,234.015 1469.99,297.986 1502.65,371.159C1566.94,306.454 1653.83,241.318 1741.21,244.185C1883.52,248.854 1982.99,397.328 1981.98,539.556C1981.14,657.696 1863.66,851.03 1719.39,965.231C1374.26,1238.42 891.177,1588.59 891.177,1588.59C891.177,1588.59 1423.24,1059.95 1560.95,910.929C1628.05,838.315 1718.28,741.239 1714.93,621.231C1712.39,530.182 1653.18,487.272 1598.55,484.949C1579.12,484.123 1548.88,485.196 1517.79,486.939C1507.05,656.203 1405.6,807.355 1286.43,885.317C1188.04,949.679 710.968,1289.12 607.975,1509.35C581.179,1566.65 534.952,1677.58 534.952,1677.58C534.952,1677.58 369.433,1495.63 297.761,1493.54C181.613,1490.16 131.721,1508.49 142.473,1667.71C150.359,1784.49 314.398,1901.17 439.139,1905.64C770.984,1917.55 788.345,1624.98 796.768,1638.56C805.19,1652.15 798.846,1979.26 489.673,1987.17C360.715,1990.47 75.343,1896.25 79.274,1661.04C81.148,1548.95 156.564,1317.1 376.682,1297.68L517.762,1333.09C517.762,1333.09 700.922,445.853 602.806,308.092Z" style="stroke:black;stroke-width:1px;"/>
    </g>
    <g id="レイヤー7">
    </g>
</svg>
