<?xml version="1.0" encoding="UTF-8" standalone="no"?>
<!DOCTYPE svg PUBLIC "-//W3C//DTD SVG 1.1//EN" "http://www.w3.org/Graphics/SVG/1.1/DTD/svg11.dtd">
<svg width="100%" height="100%" viewBox="0 0 2048 2048" version="1.1" xmlns="http://www.w3.org/2000/svg" xmlns:xlink="http://www.w3.org/1999/xlink" xml:space="preserve" xmlns:serif="http://www.serif.com/" style="fill-rule:evenodd;clip-rule:evenodd;stroke-linecap:round;stroke-linejoin:round;stroke-miterlimit:1.5;">
    <g id="レイヤー6">
        <path d="M683.745,319.079C687.069,239.302 581.7,162.478 503.906,160.85C405.154,158.783 286.985,251.033 284.246,343.259C281.715,428.472 373.624,499.438 430.052,497.655C493.464,495.652 611.112,394.542 612.252,408.706C613.391,422.87 547.583,583.965 436.888,582.64C313.759,581.166 219.159,441.722 223.903,344.314C230.502,208.813 375.061,105.423 511.006,112.031C581.399,115.453 762.809,200.777 752.368,361.715C741.466,529.76 697.203,1324.39 697.203,1324.39C697.203,1324.39 1231.93,1038.35 1392.35,940.364C1519.08,862.955 1636.29,703.181 1639.7,582.317C1643.02,464.506 1544.38,391.71 1458.64,394.564C1360.87,397.817 1060.17,675.442 1060.17,675.442C1060.17,675.442 1256.34,124.143 1655.64,132.15C1931.02,137.673 1945.71,296.482 1944.2,448.15C1942.99,569.503 1869.25,778.909 1724.68,870.663C1510.38,1006.69 863.612,1384.46 675.132,1514.27C631.812,1544.11 593.806,1649.5 593.806,1649.5C593.806,1649.5 428.287,1467.55 356.616,1465.46C240.467,1462.09 190.575,1480.41 201.327,1639.63C209.213,1756.41 373.253,1873.09 497.993,1877.57C829.839,1889.47 847.2,1596.9 855.622,1610.49C864.045,1624.07 857.7,1951.18 548.528,1959.09C419.569,1962.39 134.198,1868.17 138.129,1632.96C140.002,1520.87 215.419,1289.03 435.537,1269.61L633.635,1319.32C633.635,1319.32 675.439,518.386 683.745,319.079Z" style="stroke:black;stroke-width:1px;"/>
    </g>
    <g id="レイヤー7">
    </g>
</svg>
