<?xml version="1.0" encoding="UTF-8" standalone="no"?>
<!DOCTYPE svg PUBLIC "-//W3C//DTD SVG 1.1//EN" "http://www.w3.org/Graphics/SVG/1.1/DTD/svg11.dtd">
<svg width="100%" height="100%" viewBox="0 0 2048 2048" version="1.1" xmlns="http://www.w3.org/2000/svg" xmlns:xlink="http://www.w3.org/1999/xlink" xml:space="preserve" xmlns:serif="http://www.serif.com/" style="fill-rule:evenodd;clip-rule:evenodd;stroke-linecap:round;stroke-linejoin:round;stroke-miterlimit:1.5;">
    <g id="レイヤー6">
        <g transform="matrix(1,0,0,1,1.7823,-159.064)">
            <path d="M1500.09,188.125C1665.17,195.646 1857.59,426.952 1857.72,574.333C1857.82,685.77 1790.6,843.464 1699.22,836.125C1573.18,826.002 1591.64,688.816 1592.25,603.458C1593.08,487.918 1585.1,346.799 1478.16,343.917C1098.94,333.697 1606.16,1602.39 900.197,1619.41C679.457,1624.73 363.997,1543.87 365.33,1303.27C368.22,781.67 1295.7,178.812 1500.09,188.125ZM1192,427.04C1192,427.04 1192.55,1483.48 848.365,1490.55C713.435,1493.33 433.539,1453.12 429.522,1268.31C422.043,924.165 1192,427.04 1192,427.04Z" style="stroke:black;stroke-width:1px;"/>
        </g>
        <g transform="matrix(1,0,0,1,236.92,-109.507)">
            <path d="M300.962,1409.19C80.844,1428.61 5.428,1660.45 3.554,1772.54C-0.377,2007.76 284.995,2101.97 413.953,2098.67C723.125,2090.76 729.47,1763.65 721.047,1750.07C712.625,1736.48 695.264,2029.05 363.419,2017.15C238.678,2012.67 74.639,1895.99 66.753,1779.22C56.001,1620 105.893,1601.67 222.041,1605.05C293.713,1607.13 459.232,1789.08 459.232,1789.08C459.232,1789.08 522.103,1679.11 558.294,1627.23C601.389,1565.45 709.53,1439.42 717.803,1418.43C726.075,1397.43 642.819,1496.77 607.928,1501.25C575.71,1505.38 526.192,1465.71 526.192,1465.71" style="stroke:black;stroke-width:1px;"/>
        </g>
        <g transform="matrix(1,0,0,1,236.92,-109.507)">
            <path d="M477.677,548.287C476.538,534.123 358.889,635.234 295.477,637.237C239.05,639.02 147.14,568.054 149.671,482.841C152.41,390.614 270.58,298.365 369.332,300.432C465.635,302.448 563.922,414.372 555.243,518.909C538.089,725.555 552.591,640.51 552.591,640.51C552.591,640.51 574.64,731.937 593.298,512.188C603.091,396.847 488.826,257.077 376.432,251.613C240.487,245.004 95.927,348.395 89.328,483.896C84.584,581.303 179.185,720.748 302.313,722.221C413.008,723.546 478.816,562.451 477.677,548.287Z" style="stroke:black;stroke-width:1px;"/>
        </g>
    </g>
    <g id="レイヤー7">
    </g>
</svg>
