<?xml version="1.0" encoding="UTF-8" standalone="no"?>
<!DOCTYPE svg PUBLIC "-//W3C//DTD SVG 1.1//EN" "http://www.w3.org/Graphics/SVG/1.1/DTD/svg11.dtd">
<svg width="100%" height="100%" viewBox="0 0 2048 2048" version="1.1" xmlns="http://www.w3.org/2000/svg" xmlns:xlink="http://www.w3.org/1999/xlink" xml:space="preserve" xmlns:serif="http://www.serif.com/" style="fill-rule:evenodd;clip-rule:evenodd;stroke-linecap:round;stroke-linejoin:round;stroke-miterlimit:1.5;">
    <g id="レイヤー5">
        <path d="M805.391,451.163C805.391,451.163 1239.9,69.727 1394.99,45.868C1529.01,25.251 1678.01,208.367 1751.38,234.912C1779.27,245.002 1841.71,191.152 1835.23,205.138C1828.75,219.124 1743.86,293.661 1709.64,330.995C1681.16,362.066 1666.08,420.291 1629.92,429.141C1593.77,437.991 1537.91,400.682 1492.72,384.098C1430.59,361.295 1319.12,277.835 1257.13,292.323C1142.01,319.231 801.973,545.541 801.973,545.541L805.391,451.163Z" style="stroke:black;stroke-width:1px;"/>
        <g transform="matrix(1,0,0,1,64.7398,-297.6)">
            <path d="M721.096,1159.88C721.096,1159.88 1157.16,828.335 1320.93,830.863C1546.16,834.341 1659.52,1146.22 1652.21,1313.33C1640.2,1587.56 1555.41,1731.84 1248.24,1715.86C1069.39,1706.56 700.352,1412.56 700.352,1412.56L698.95,1326.17C811.065,1419.13 1045.55,1581.64 1210.56,1574.31C1339.29,1568.59 1343.97,1462.79 1343.35,1348.88C1342.83,1254.78 1239.79,1073.07 1129.85,1073.09C1019.63,1073.12 709.684,1241.2 709.684,1241.2L721.096,1159.88Z" style="stroke:black;stroke-width:1px;"/>
        </g>
        <g transform="matrix(1,0,0,1,236.92,-109.507)">
            <path d="M477.677,548.287C476.538,534.123 358.889,635.234 295.477,637.237C239.05,639.02 147.14,568.054 149.671,482.841C152.41,390.614 270.58,298.365 369.332,300.432C465.635,302.448 563.922,414.372 555.243,518.909C538.089,725.555 474.119,1443.85 474.119,1443.85C474.119,1443.85 359.598,1404.01 300.962,1409.19C80.844,1428.61 5.428,1660.45 3.554,1772.54C-0.377,2007.76 284.995,2101.97 413.953,2098.67C723.125,2090.76 729.47,1763.65 721.047,1750.07C712.625,1736.48 695.264,2029.05 363.419,2017.15C238.678,2012.67 74.639,1895.99 66.753,1779.22C56.001,1620 105.893,1601.67 222.041,1605.05C293.713,1607.13 459.232,1789.08 459.232,1789.08C459.232,1789.08 522.103,1679.11 558.294,1627.23C601.389,1565.45 709.53,1439.42 717.803,1418.43C726.075,1397.43 642.819,1496.77 607.928,1501.25C575.71,1505.38 526.192,1465.71 526.192,1465.71C526.192,1465.71 574.64,731.937 593.298,512.188C603.091,396.847 488.826,257.077 376.432,251.613C240.487,245.004 95.927,348.395 89.328,483.896C84.584,581.303 179.185,720.748 302.313,722.221C413.008,723.546 478.816,562.451 477.677,548.287Z" style="stroke:black;stroke-width:1px;"/>
        </g>
    </g>
</svg>
