<?xml version="1.0" encoding="UTF-8" standalone="no"?>
<!DOCTYPE svg PUBLIC "-//W3C//DTD SVG 1.1//EN" "http://www.w3.org/Graphics/SVG/1.1/DTD/svg11.dtd">
<svg width="100%" height="100%" viewBox="0 0 2048 2048" version="1.1" xmlns="http://www.w3.org/2000/svg" xmlns:xlink="http://www.w3.org/1999/xlink" xml:space="preserve" xmlns:serif="http://www.serif.com/" style="fill-rule:evenodd;clip-rule:evenodd;stroke-linecap:round;stroke-linejoin:round;stroke-miterlimit:1.5;">
    <g id="レイヤー6">
        <path d="M741.379,187.494C779.061,184.659 848.236,95.756 846.564,130.211C844.926,163.957 852.165,843.422 852.165,843.422C917.369,770.057 1118.21,667.656 1174.49,629.68C1280.08,558.423 1485.74,419.137 1480.75,308.919C1478.35,255.744 1407.4,243.224 1398.32,202.597C1390.39,167.116 1595.13,134.634 1660.69,135.68C1723.84,136.687 1779.28,226.317 1779.69,299.305C1780.13,377.584 1585.25,568.763 1585.25,568.763C1585.25,568.763 1935.78,589.95 1935.72,926.305C1935.64,1432.02 1277.19,1729.81 1277.19,1729.81C1277.19,1729.81 1642.01,1324.35 1628.82,998.43C1623.23,860.481 1433.2,727.061 1310.59,721.062C1240.45,717.631 901.55,872.015 852.092,896.992L835.306,1576.33L750.077,1693.89C750.077,1693.89 530.633,1497.62 458.961,1495.54C342.813,1492.16 292.921,1510.49 303.673,1669.71C311.559,1786.48 475.598,1903.17 600.339,1907.64C932.184,1919.55 949.545,1626.97 957.968,1640.56C966.39,1654.15 960.046,1981.25 650.873,1989.16C521.915,1992.46 236.543,1898.25 240.474,1663.04C242.348,1550.95 317.764,1319.1 537.882,1299.68L750.477,1353.03C750.477,1353.03 761.79,593.444 760.783,411.434C759.869,246.336 640.392,191.639 606.252,190.925C507.5,188.858 389.33,281.107 386.591,373.334C384.06,458.547 475.97,529.513 532.397,527.73C595.809,525.727 713.458,424.616 714.597,438.78C715.737,452.944 649.928,614.039 539.233,612.714C416.105,611.241 321.504,471.796 326.248,374.389C332.847,238.888 477.407,135.497 613.352,142.106C657.871,144.27 703.698,190.329 741.379,187.494Z" style="stroke:black;stroke-width:1px;"/>
    </g>
    <g id="レイヤー7">
    </g>
</svg>
