<?xml version="1.0" encoding="UTF-8" standalone="no"?>
<!DOCTYPE svg PUBLIC "-//W3C//DTD SVG 1.1//EN" "http://www.w3.org/Graphics/SVG/1.1/DTD/svg11.dtd">
<svg width="100%" height="100%" viewBox="0 0 2048 2048" version="1.1" xmlns="http://www.w3.org/2000/svg" xmlns:xlink="http://www.w3.org/1999/xlink" xml:space="preserve" xmlns:serif="http://www.serif.com/" style="fill-rule:evenodd;clip-rule:evenodd;stroke-linecap:round;stroke-linejoin:round;stroke-miterlimit:1.5;">
    <g id="レイヤー4">
        <path d="M1382.03,356.885L1393.84,1501.75L1577.79,1501.43L1575.74,1550.96L1193.28,1547.33L1191.19,472.098L704.526,470.116L704.145,437.463L1196.27,434.931L1382.03,356.885Z" style="stroke:black;stroke-width:1px;"/>
        <path d="M702.423,1417.35C703.298,1348.89 715.078,1255.74 869.451,1128.27C936.227,1073.13 1150.43,922.681 1244.71,871.144C1300.05,840.892 1265.31,890.996 1265.31,890.996C1265.31,890.996 922.425,1113.99 845.48,1191.94C801.134,1236.87 727.299,1296.26 736.908,1412.66C741.088,1463.3 794.107,1480.94 795.2,1444.44C796.396,1404.53 856.899,1332.16 903.448,1390.19C929.847,1423.11 922.602,1458.56 887.416,1478.46C859.92,1494.01 809.182,1497.74 784.816,1498.65C732.288,1500.62 701.713,1472.86 702.423,1417.35Z" style="stroke:black;stroke-width:1px;"/>
    </g>
</svg>
