<?xml version="1.0" encoding="UTF-8" standalone="no"?>
<!DOCTYPE svg PUBLIC "-//W3C//DTD SVG 1.1//EN" "http://www.w3.org/Graphics/SVG/1.1/DTD/svg11.dtd">
<svg width="100%" height="100%" viewBox="0 0 2048 2048" version="1.1" xmlns="http://www.w3.org/2000/svg" xmlns:xlink="http://www.w3.org/1999/xlink" xml:space="preserve" xmlns:serif="http://www.serif.com/" style="fill-rule:evenodd;clip-rule:evenodd;stroke-linecap:round;stroke-linejoin:round;stroke-miterlimit:1.5;">
    <g transform="matrix(-1,0,0,1,2142.31,72.4412)">
        <g id="レイヤー4">
            <path d="M942.885,327.571C1018.7,320.671 1092.43,369.92 1124.25,421.417C1235.06,600.78 1649.95,1235.02 1647.82,1343.08C1644.58,1507.43 1538.2,1499.83 1476.98,1500.03C1325.5,1500.54 815.909,1497.73 684.729,1496.92C632.97,1496.6 627.917,1373.09 670.281,1300.16C686.519,1272.21 744.415,1242.1 768.173,1277.55C792.428,1313.74 750.505,1352.98 718.611,1372.01C688.331,1390.07 592.94,1457.56 757.797,1458.64C887.699,1459.5 1355.18,1457.97 1486.86,1460.38C1538.31,1461.32 1487.32,1329.44 1474.49,1306.5C1397.38,1168.61 1111.59,705.187 1021.7,557.56C992.972,510.381 917.747,362.753 817.661,394.226C698.827,431.595 581.038,675.31 704.965,666.792C771.37,662.227 809.526,690.61 807.799,743.971C806.045,798.162 774.23,825.834 713.22,826.781C680.487,827.29 606.156,832.533 606.211,722.686C606.272,600.051 670.643,352.347 942.885,327.571Z" style="stroke:black;stroke-width:1px;"/>
        </g>
    </g>
</svg>
