<?xml version="1.0" encoding="UTF-8" standalone="no"?>
<!DOCTYPE svg PUBLIC "-//W3C//DTD SVG 1.1//EN" "http://www.w3.org/Graphics/SVG/1.1/DTD/svg11.dtd">
<svg width="100%" height="100%" viewBox="0 0 2048 2048" version="1.1" xmlns="http://www.w3.org/2000/svg" xmlns:xlink="http://www.w3.org/1999/xlink" xml:space="preserve" xmlns:serif="http://www.serif.com/" style="fill-rule:evenodd;clip-rule:evenodd;stroke-linecap:round;stroke-linejoin:round;stroke-miterlimit:1.5;">
    <g id="レイヤー4">
        <g transform="matrix(1,0,0,0.790815,30.3239,372.299)">
            <path d="M1127.75,757.499C1127.2,686.457 1232.23,675.973 1227.91,754.592C1225.61,796.38 1201.96,966.695 1086.92,966.345C957.286,965.952 853.634,972.914 853.634,972.914C853.634,972.914 851.881,911.507 1053.59,926.741C1240.42,940.852 1128.11,804.81 1127.75,757.499Z" style="stroke:black;stroke-width:1.11px;"/>
        </g>
        <g transform="matrix(1,0,0,1,112.959,12.2782)">
            <path d="M1030.02,466.674C1428.38,458.896 1484.8,688.777 1476.48,762.252C1450.52,991.738 1078.08,915.838 1279.81,763.962C1520.11,583.053 1280.51,488.077 1075.61,496.432C837.494,506.141 859.571,601.474 857,722.958C853.902,869.336 858.121,1181.43 857.435,1336.84C857.011,1433.1 779.343,1553.58 695.255,1612.49C598.401,1680.34 464.192,1630.89 500.113,1567.37C578.766,1428.28 583.773,1626.66 640.118,1597.12C658.84,1587.3 669.418,1513.05 670.99,1434.06C673.99,1283.23 664.685,970.694 668.655,798.764C672.272,642.163 814.824,470.876 1030.02,466.674Z" style="stroke:black;stroke-width:1px;"/>
        </g>
    </g>
</svg>
