<?xml version="1.0" encoding="UTF-8" standalone="no"?>
<!DOCTYPE svg PUBLIC "-//W3C//DTD SVG 1.1//EN" "http://www.w3.org/Graphics/SVG/1.1/DTD/svg11.dtd">
<svg width="100%" height="100%" viewBox="0 0 2048 2048" version="1.1" xmlns="http://www.w3.org/2000/svg" xmlns:xlink="http://www.w3.org/1999/xlink" xml:space="preserve" xmlns:serif="http://www.serif.com/" style="fill-rule:evenodd;clip-rule:evenodd;stroke-linecap:round;stroke-linejoin:round;stroke-miterlimit:1.5;">
    <g id="レイヤー4">
        <g transform="matrix(1,0,0,1,51.686,4.57554)">
            <path d="M672.1,195.628C832.876,194.756 994.91,260.386 1001.87,450.286C1009.01,645.22 977.85,1354.82 977.85,1354.82L818.551,1352.71C818.551,1352.71 814.471,647.194 815.563,451.875C816.245,329.774 727.632,263.225 622.968,263.722C480.078,264.399 450.39,334.763 478.685,337.598C544.451,344.185 522.425,411.177 496.702,418.275C462.641,427.674 432.459,396.129 432.215,351.134C431.673,251.247 561.775,196.227 672.1,195.628Z" style="stroke:black;stroke-width:1px;"/>
        </g>
        <path d="M1280.9,868.167C1456.64,868.167 1599.32,1004.67 1599.32,1172.81C1599.32,1340.95 1456.64,1477.46 1280.9,1477.46C1105.16,1477.46 962.474,1340.95 962.474,1172.81C962.474,1004.67 1105.16,868.167 1280.9,868.167ZM1243.97,918.125C1383.26,918.125 1496.34,1035.34 1496.34,1179.72C1496.34,1324.09 1383.26,1441.31 1243.97,1441.31C1104.69,1441.31 991.607,1324.09 991.607,1179.72C991.607,1035.34 1104.69,918.125 1243.97,918.125Z"/>
        <g transform="matrix(-1,-1.22465e-16,9.68469e-17,-0.790815,1814.28,1334.79)">
            <path d="M1127.75,757.499C1127.2,686.457 1232.23,675.973 1227.91,754.592C1225.61,796.38 1201.96,966.695 1086.92,966.345C957.286,965.952 853.634,972.914 853.634,972.914C853.634,972.914 851.881,911.507 1053.59,926.741C1240.42,940.852 1128.11,804.81 1127.75,757.499Z" style="stroke:black;stroke-width:1.11px;"/>
        </g>
    </g>
</svg>
