<?xml version="1.0" encoding="UTF-8" standalone="no"?>
<!DOCTYPE svg PUBLIC "-//W3C//DTD SVG 1.1//EN" "http://www.w3.org/Graphics/SVG/1.1/DTD/svg11.dtd">
<svg width="100%" height="100%" viewBox="0 0 2048 2048" version="1.1" xmlns="http://www.w3.org/2000/svg" xmlns:xlink="http://www.w3.org/1999/xlink" xml:space="preserve" xmlns:serif="http://www.serif.com/" style="fill-rule:evenodd;clip-rule:evenodd;stroke-linecap:round;stroke-linejoin:round;stroke-miterlimit:1.5;">
    <g id="レイヤー4">
        <g transform="matrix(1,0,0,1,51.686,4.57554)">
            <path d="M672.1,195.628C832.876,194.756 994.91,260.386 1001.87,450.286C1009.01,645.22 977.85,1354.82 977.85,1354.82L818.551,1352.71C818.551,1352.71 814.471,647.194 815.563,451.875C816.245,329.774 727.632,263.225 622.968,263.722C480.078,264.399 450.39,334.763 478.685,337.598C544.451,344.185 522.425,411.177 496.702,418.275C462.641,427.674 432.459,396.129 432.215,351.134C431.673,251.247 561.775,196.227 672.1,195.628Z" style="stroke:black;stroke-width:1px;"/>
        </g>
        <ellipse cx="1280.9" cy="1172.81" rx="318.424" ry="304.645"/>
        <ellipse cx="1243.97" cy="1179.72" rx="252.365" ry="261.592" style="fill:white;"/>
    </g>
</svg>
